<?xml version="1.0" standalone="no"?>
<!DOCTYPE svg PUBLIC "-//W3C//DTD SVG 20010904//EN"
 "http://www.w3.org/TR/2001/REC-SVG-20010904/DTD/svg10.dtd">
<svg version="1.0" xmlns="http://www.w3.org/2000/svg"
 width="700.000000pt" height="700.000000pt" viewBox="0 0 700.000000 700.000000"
 preserveAspectRatio="xMidYMid meet">
<metadata>
Created by potrace 1.14, written by Peter Selinger 2001-2017
</metadata>
<g transform="translate(0.000000,700.000000) scale(0.100000,-0.100000)"
fill="#000000" stroke="none">
<path d="M3387 6644 c-1 -1 -53 -5 -115 -9 -63 -4 -124 -8 -135 -10 -12 -2
-44 -6 -70 -10 -27 -4 -57 -8 -67 -10 -9 -2 -33 -6 -51 -9 -489 -78 -1047
-334 -1439 -660 -301 -250 -511 -495 -724 -844 -73 -120 -190 -372 -251 -539
-56 -156 -124 -428 -141 -558 -2 -22 -9 -67 -14 -100 -23 -153 -30 -425 -16
-630 5 -60 9 -112 11 -115 1 -3 6 -36 9 -75 4 -38 9 -77 11 -85 2 -8 7 -31 10
-50 16 -98 61 -279 97 -390 177 -551 472 -1005 917 -1410 118 -107 339 -266
498 -359 1042 -604 2337 -562 3341 111 250 167 499 396 695 641 441 547 686
1238 690 1942 1 218 -11 364 -48 588 -45 264 -153 586 -287 852 -34 66 -66
130 -72 142 -6 13 -14 23 -18 23 -5 0 -8 5 -8 12 0 16 -157 250 -231 345 -260
329 -584 607 -941 806 -333 186 -635 291 -1033 362 -42 7 -194 25 -275 31 -75
6 -338 12 -343 8z m423 -408 c19 -3 55 -8 80 -11 166 -21 436 -92 610 -160
118 -46 230 -97 230 -106 0 -3 -21 -12 -47 -19 -27 -8 -50 -14 -53 -15 -3 0
-45 -13 -95 -29 -49 -15 -115 -34 -145 -43 -30 -8 -82 -24 -115 -34 -148 -47
-1237 -371 -1262 -375 -26 -5 -64 28 -288 247 -71 70 -143 139 -158 152 -24
20 -26 26 -15 38 7 8 51 56 98 108 179 198 148 177 290 205 137 28 166 32 285
42 44 3 82 8 85 11 6 5 455 -4 500 -11z m-1080 -102 c0 -3 -12 -18 -27 -33
-37 -37 -176 -191 -184 -203 -6 -9 -142 -68 -399 -173 -85 -35 -226 -93 -312
-129 -86 -35 -155 -59 -152 -53 8 19 201 172 306 242 167 112 451 258 570 294
18 5 65 21 103 35 72 25 95 30 95 20z m2273 -325 c197 -132 278 -199 452 -374
198 -199 350 -403 478 -645 47 -89 137 -289 137 -304 0 -2 -41 15 -90 40 -50
24 -93 44 -95 44 -2 0 -70 32 -151 70 -80 39 -147 70 -149 70 -1 0 -63 29
-136 64 -74 35 -164 77 -201 94 -62 29 -69 35 -92 87 -14 30 -26 57 -26 59 0
4 -52 120 -96 213 -13 28 -24 54 -24 57 0 3 -20 49 -45 102 -25 53 -45 98 -45
100 0 3 -14 35 -31 72 -17 37 -37 81 -44 97 -8 17 -25 56 -39 88 -14 32 -26
61 -26 65 0 10 131 51 148 46 7 -2 40 -22 75 -45z m-2321 -128 c75 -73 161
-156 190 -183 l53 -49 -75 6 c-141 10 -344 24 -455 30 -69 4 -210 13 -305 20
-36 2 -112 7 -169 11 -57 3 -111 8 -120 9 -9 2 -25 4 -36 4 -11 1 148 71 353
155 206 85 376 157 380 160 7 8 19 -3 184 -163z m2258 -331 c109 -245 197
-446 197 -447 -3 -2 -281 -15 -562 -27 -88 -3 -198 -9 -245 -11 -47 -3 -134
-7 -195 -10 -107 -5 -222 -10 -432 -20 l-103 -5 -215 246 c-118 135 -215 249
-215 253 0 4 26 14 58 23 31 8 118 34 192 56 74 22 227 68 340 102 113 33 270
81 350 105 80 24 237 72 350 106 113 33 216 65 230 69 14 5 31 8 39 7 8 -1 97
-189 211 -447z m-3295 36 c95 -6 191 -12 335 -22 36 -2 115 -7 175 -10 61 -4
117 -8 125 -10 8 -1 33 -3 56 -3 l40 -1 58 -147 c32 -82 62 -157 67 -168 4
-11 45 -114 90 -230 45 -115 99 -255 121 -310 46 -116 43 -26 23 -760 -3 -137
-8 -302 -10 -365 -2 -63 -4 -142 -4 -174 -1 -37 -5 -56 -10 -50 -8 8 -1009
1640 -1061 1729 -10 17 -55 91 -100 165 -167 271 -155 247 -134 272 71 83 87
96 107 93 12 -2 67 -6 122 -9z m935 -61 c58 -3 128 -8 155 -10 28 -2 95 -7
149 -10 55 -3 105 -9 111 -13 7 -4 93 -99 191 -212 98 -113 183 -210 189 -216
5 -6 33 -37 60 -69 28 -32 55 -63 60 -69 6 -6 39 -45 75 -86 35 -41 79 -91 96
-110 18 -19 69 -78 114 -130 90 -103 90 -103 233 -268 54 -61 93 -110 85 -107
-13 4 -851 244 -878 251 -14 3 -198 55 -363 102 -37 11 -70 21 -72 23 -2 2
-24 58 -49 124 -26 66 -51 129 -56 140 -8 18 -96 243 -126 325 -7 19 -40 103
-72 185 -33 83 -58 153 -56 157 3 4 14 5 27 3 12 -2 69 -6 127 -10z m-1295
-394 c-3 -53 -8 -119 -10 -147 -2 -27 -6 -88 -10 -135 -3 -46 -8 -109 -10
-139 -3 -30 -7 -92 -10 -136 -3 -45 -7 -106 -9 -135 -9 -103 -32 -412 -51
-684 -4 -58 -15 -212 -20 -270 -7 -87 -15 -198 -20 -270 -6 -85 -16 -217 -20
-265 -2 -19 -4 -49 -4 -66 -1 -29 -7 -33 -98 -77 -54 -26 -101 -47 -105 -47
-13 0 -95 276 -113 380 -47 267 -49 292 -50 550 0 244 4 306 36 486 63 368
198 714 396 1018 l64 99 21 -33 c18 -30 19 -44 13 -129z m144 -129 c56 -90
101 -167 101 -172 0 -5 3 -10 8 -12 4 -1 42 -61 85 -132 l78 -128 -6 -87 c-3
-47 -7 -108 -10 -136 -3 -27 -7 -84 -10 -125 -11 -164 -15 -208 -20 -270 -3
-36 -7 -96 -10 -135 -3 -38 -7 -97 -10 -130 -2 -33 -7 -98 -10 -145 -4 -47 -8
-101 -10 -120 -2 -20 -6 -78 -9 -130 -4 -52 -8 -115 -10 -140 -3 -25 -7 -85
-11 -135 -3 -49 -8 -108 -10 -130 -3 -22 -7 -74 -10 -115 -2 -41 -7 -113 -11
-160 -3 -47 -7 -104 -9 -128 -1 -23 -5 -45 -7 -48 -3 -2 -34 28 -69 68 -95
108 -121 138 -149 168 -23 25 -100 112 -148 168 -12 13 -19 31 -17 40 1 10 6
62 10 117 3 55 8 116 10 135 2 19 7 80 10 135 4 55 8 120 10 145 7 83 15 184
20 265 3 44 7 105 10 135 3 30 7 91 10 135 5 77 10 147 20 265 8 95 15 192 20
280 3 47 7 105 10 130 2 25 7 88 10 140 3 52 8 111 10 130 6 50 18 240 16 269
0 14 1 23 3 20 2 -2 50 -78 105 -167z m3856 8 c61 -29 142 -67 180 -85 246
-114 274 -127 467 -218 64 -31 126 -58 137 -62 13 -4 27 -28 45 -80 13 -41 21
-77 18 -79 -4 -2 -255 -97 -557 -211 -303 -114 -644 -243 -759 -286 -115 -43
-214 -80 -220 -81 -12 -3 -68 58 -296 322 -34 39 -124 142 -135 154 -5 6 -39
45 -75 86 -36 41 -67 77 -70 80 -3 3 -34 39 -70 80 -36 41 -79 91 -96 110
-109 121 -214 246 -214 252 0 5 26 8 58 8 31 1 95 3 142 5 231 11 388 18 660
30 96 4 195 9 220 10 25 1 122 5 215 9 94 4 171 9 172 10 13 13 87 -10 178
-54z m-2340 -494 c50 -14 104 -30 120 -35 17 -6 246 -71 510 -146 613 -173
579 -163 606 -194 35 -41 212 -244 232 -265 9 -11 17 -23 17 -26 0 -4 -253
-102 -562 -218 -310 -116 -681 -256 -826 -311 -261 -98 -263 -99 -276 -77 -9
14 -12 48 -11 101 2 44 6 181 9 305 5 197 12 435 21 730 2 47 3 106 4 131 l1
47 33 -8 c17 -5 73 -20 122 -34z m-899 -522 l194 -319 -5 -65 c-3 -36 -7 -76
-10 -90 -2 -14 -6 -56 -10 -93 -3 -37 -8 -76 -10 -86 -2 -10 -6 -55 -10 -102
-4 -46 -8 -86 -10 -89 -2 -3 -6 -39 -10 -80 -3 -41 -8 -88 -10 -105 -3 -16 -7
-59 -10 -95 -5 -49 -12 -70 -28 -85 -12 -11 -105 -92 -207 -180 -102 -87 -196
-168 -208 -179 l-24 -21 7 100 c3 55 8 116 10 135 2 19 6 76 10 125 9 142 15
216 20 270 2 28 7 84 10 125 3 41 8 107 11 145 3 39 7 97 9 130 6 95 15 216
20 265 2 25 7 86 10 135 4 50 8 106 10 125 2 19 7 81 10 137 4 56 8 110 10
120 2 10 4 40 4 68 1 34 4 46 11 39 6 -6 99 -155 206 -330z m4152 269 c-1 -7
11 -85 28 -176 13 -70 19 -204 19 -402 -1 -203 -4 -256 -20 -365 -2 -14 -7
-45 -10 -70 -26 -194 -115 -486 -213 -700 l-34 -75 -23 27 c-12 14 -84 111
-159 215 -75 103 -177 244 -226 312 -60 83 -89 130 -84 140 6 15 42 149 49
181 2 8 35 143 74 299 39 156 73 294 76 305 29 128 35 141 67 149 13 3 118 41
233 86 217 83 226 86 223 74z m-542 -220 c-2 -16 -14 -66 -26 -113 -11 -47
-23 -94 -25 -105 -3 -11 -21 -83 -40 -160 -20 -77 -38 -149 -40 -160 -3 -11
-12 -49 -21 -84 -9 -36 -17 -72 -19 -80 -2 -9 -13 -53 -25 -98 l-23 -82 -51
-15 c-28 -8 -80 -21 -116 -30 -36 -8 -195 -47 -355 -86 -159 -39 -384 -94
-500 -122 -115 -28 -318 -77 -450 -110 -132 -32 -251 -61 -265 -64 -14 -3 -32
-7 -41 -10 -15 -4 -16 24 -14 291 1 162 3 296 6 298 2 2 171 66 374 142 204
76 384 144 400 151 17 7 284 108 595 224 311 117 579 218 595 225 43 19 47 18
41 -12z m-3202 -716 c87 -142 161 -270 166 -285 5 -15 11 -64 14 -109 5 -63 3
-83 -6 -84 -7 0 -29 -2 -48 -4 -110 -11 -300 -26 -365 -29 -24 -1 -30 3 -28
19 10 85 45 410 49 450 3 28 7 61 9 75 2 14 7 59 11 100 4 41 9 78 10 83 1 4
2 21 3 39 1 28 3 30 15 18 7 -8 84 -131 170 -273z m1043 -184 l-2 -107 -145
-53 c-80 -29 -152 -53 -161 -53 -8 0 -64 19 -125 43 -60 24 -118 47 -129 51
-28 10 -29 10 255 116 135 50 254 95 265 100 43 18 44 15 42 -97z m2025 -124
c40 -55 83 -115 95 -132 12 -18 46 -64 75 -104 29 -39 87 -118 128 -175 41
-56 82 -112 92 -123 32 -34 32 -59 -3 -121 -54 -98 -172 -273 -249 -373 -70
-91 -316 -351 -331 -351 -4 0 -40 22 -81 48 -140 92 -597 387 -615 397 -10 6
-70 44 -133 85 -63 42 -269 174 -457 295 -189 121 -343 223 -343 227 0 6 23
12 125 34 6 1 39 10 75 19 36 9 72 18 80 20 35 7 608 146 640 155 19 5 204 51
410 101 206 50 377 93 379 95 18 18 47 -7 113 -97z m-2532 -55 c63 -25 129
-52 147 -61 l31 -15 0 -159 -1 -160 -131 -64 c-72 -35 -131 -63 -132 -62 -1 1
-5 36 -8 77 -4 41 -9 91 -11 110 -4 32 -10 97 -20 205 -2 22 -6 70 -10 108 -6
54 -4 67 7 67 8 0 65 -21 128 -46z m506 -104 l-1 -130 -142 -70 c-79 -39 -144
-70 -145 -70 -2 0 -3 67 -3 150 l-1 150 71 27 c97 37 198 72 211 72 7 1 11
-41 10 -129z m-2116 -324 c85 -97 154 -183 154 -191 -1 -8 -46 -89 -100 -181
l-98 -166 -24 28 c-60 72 -203 302 -264 424 -109 220 -132 280 -107 281 8 0
52 20 99 44 l85 43 50 -53 c28 -29 120 -132 205 -229z m1271 227 c0 -26 2 -57
4 -68 2 -11 7 -51 10 -90 3 -38 7 -83 9 -100 2 -16 7 -68 11 -115 4 -47 9 -96
10 -110 2 -14 6 -61 10 -105 4 -44 8 -96 10 -115 2 -19 6 -69 10 -110 3 -41 8
-87 11 -103 5 -26 4 -27 -20 -17 -14 5 -108 52 -208 103 -101 52 -322 165
-493 252 -170 86 -314 161 -318 165 -4 4 52 58 125 121 73 62 135 116 138 119
3 3 34 30 69 60 35 30 80 70 100 87 20 18 41 33 46 34 6 0 17 2 25 3 15 3 100
11 255 22 44 3 81 7 82 8 1 0 26 2 57 4 l56 3 1 -48z m1133 -306 c111 -72 249
-161 308 -200 66 -42 105 -74 101 -81 -49 -83 -387 -556 -401 -560 -32 -9
-546 -127 -622 -142 -14 -3 -57 -13 -97 -23 -85 -22 -78 -30 -88 103 -4 50 -8
98 -10 108 -2 9 -7 58 -10 108 -4 51 -8 99 -10 108 -1 10 -6 55 -10 102 -4 47
-8 92 -10 100 -1 8 -6 58 -9 110 l-7 95 263 128 c145 70 288 140 318 155 30
15 61 26 69 23 8 -2 105 -63 215 -134z m-2026 -700 c39 -125 74 -232 77 -237
8 -14 -7 -12 -26 3 -124 94 -371 336 -366 358 3 9 44 83 92 164 l88 149 32
-105 c18 -57 65 -206 103 -332z m219 281 c701 -356 777 -396 778 -409 1 -8 6
-50 9 -94 9 -97 15 -157 21 -210 2 -22 7 -79 10 -127 l6 -87 -383 155 c-211
86 -417 169 -459 186 l-77 30 -20 67 c-11 36 -43 140 -72 231 -28 91 -60 192
-70 225 -10 33 -27 88 -38 123 -11 34 -16 62 -11 62 5 0 143 -68 306 -152z
m2396 40 c70 -46 190 -123 267 -173 77 -49 196 -126 264 -170 68 -44 162 -105
210 -135 47 -30 86 -58 86 -62 0 -9 -117 -94 -230 -167 -115 -75 -359 -196
-493 -246 -109 -40 -318 -102 -376 -111 -43 -7 -40 -12 -111 186 -23 63 -46
124 -51 135 -5 11 -29 75 -54 142 l-45 122 68 98 c261 382 318 462 328 463 6
0 68 -37 137 -82z m-534 -585 c18 -49 36 -97 41 -108 33 -74 140 -377 136
-384 -3 -5 -32 -12 -63 -16 -32 -4 -66 -9 -78 -11 -66 -13 -185 -19 -370 -19
-285 0 -471 19 -472 48 0 32 -14 205 -18 227 -10 62 -15 170 -7 170 5 0 78 16
163 35 85 20 165 38 179 41 14 3 43 10 65 16 22 5 51 12 65 14 14 3 33 7 42
10 10 3 28 7 40 9 13 3 70 16 128 29 58 13 108 25 111 25 4 1 21 -38 38 -86z
m-1764 -128 c39 -15 84 -33 100 -41 23 -10 564 -229 623 -251 6 -3 12 -12 12
-20 0 -19 -47 -10 -187 38 -136 47 -254 95 -354 145 -89 45 -279 154 -279 161
0 2 3 2 8 0 4 -3 39 -17 77 -32z"/>
</g>
</svg>
