<svg width="4096.001" height="1024" viewBox="0 0 1083.734 270.933" xmlns="http://www.w3.org/2000/svg"><g transform="translate(-1.132 -621.317)"><circle style="fill:#343d2d;fill-opacity:1;stroke-width:1;stroke-linecap:round;stroke-linejoin:round;-inkscape-stroke:none;stop-color:#000" cx="136.599" cy="756.783" r="109.802"/><path style="color:#000;fill:#f9f9f7;fill-opacity:1;stroke-width:1;stroke-linecap:round;stroke-linejoin:round;-inkscape-stroke:none" d="M136.598 645.658c-61.443 0-111.124 49.683-111.124 111.126 0 61.443 49.681 111.124 111.124 111.124s111.126-49.681 111.126-111.124-49.683-111.126-111.126-111.126zm0 13.891c15.842 0 30.757 3.728 43.927 10.354l-60.797 18.19-1.588-.104-15.433-14.938 9.508-10.461a98.526 98.526 0 0 1 24.383-3.04zm-26.71 3.665-8.47 9.32-30.035 12.393-.477-.032a96.63 96.63 0 0 1 38.982-21.681zm77.033 10.214a96.796 96.796 0 0 1 40.62 48.688l-31.524-14.75-14.395-32.353zm-85.267.417 14.478 14.012-41.8-2.737zm78.71 1.545 14.174 31.856-54.436 2.496-15.45-17.684zM65.922 689.789l31.029 2.031 13.23 33.846-1.2 44.622-46.727-76.395a96.923 96.923 0 0 1 3.668-4.104zm32.464 2.126 20.392 1.335 39.434 45.137-46.887-13.373zm-41.25 8.583 1.47 2.404-6.173 83.814-7.25 3.474c-3.766-10.402-5.818-21.65-5.818-33.406 0-21.034 6.565-40.435 17.771-56.286zm2.637 4.311 13.28 21.713-5.715 75.782-13.615-15.356zm135.616 3.7 32.79 15.343a96.75 96.75 0 0 1 1.663 5.12l-54.889 20.66-33.756-38.637zm-83.925 17.9 48.324 13.781 9.96 11.402-58.69 22.092-.829-1.356zm-33.76 7.717 14.45 23.623-3.399 30.826-16.215 14.013zm154.055 2.472a98.844 98.844 0 0 1 2.074 20.186c0 15.638-3.636 30.372-10.103 43.418l-17.398-23.87 8.307-33.29zm-18.6 7.001-8.07 32.331-63.347 15.46-.12-.077.15-20.841zM93.263 759.563l12.343 20.18.664 7.106-16.161 1.339zm43.286 12.875-.057 7.804-10.99 3.945-9.797-3.903zm68.807 4.768 17.717 24.305a96.806 96.806 0 0 1-21.901 28.161l-57.922-37.31Zm-91.46 3.759 10.943 4.36v11.42l-9.371 4.575-1.89-20.236zm22.587.665-.068 9.464-10.273 5.015V785.34zm-83.614 6.32 14.332 16.163-.076 1.004L60.065 817a96.611 96.611 0 0 1-14.423-25.584zm53.522.195 3.285 35.198-37.244-18.94 17.21-14.87zm32.441 7.566 22.564 14.535-13.933 20.09-28.676 6.545-2.802-30.017zm-67.265 14.096 38.681 19.671 1.76 18.853-32.553-13.179zm-1.297.215 7.606 24.44a96.902 96.902 0 0 1-14.272-13.223zm92.221.93 34.5 22.223a96.619 96.619 0 0 1-40.516 18.837l-7.891-21.005zm-15.047 20.725 7.734 20.586a98.971 98.971 0 0 1-18.58 1.755 99.17 99.17 0 0 1-16.338-1.354l-1.351-14.475zm-64.762 6.187 29.462 11.926.112 1.198a96.568 96.568 0 0 1-29.574-13.124z"/><path d="M332.987 851.318h39.434l28.63-189.068h-27.28l-19.447 146.663h-.54L334.337 662.25h-29.98zm82.379 0h81.029v-27.01h-51.318v-58.07h40.784v-27.01h-40.784V689.26h51.318v-27.01h-81.029zm98.045 0h26.47v-138.02h.54l35.653 138.02h30.52V662.25h-26.469v113.17h-.54l-28.9-113.17H513.41zm153.955 2.701c29.17 0 44.836-17.287 44.836-48.077 0-23.499-7.833-38.624-32.682-60.502-19.447-17.016-25.659-27.01-25.659-40.784 0-12.965 5.402-18.097 14.855-18.097 9.454 0 14.856 5.132 14.856 18.637v9.723h28.09v-7.833c0-30.25-14.315-47.537-43.216-47.537-28.9 0-44.295 17.287-44.295 46.997 0 21.608 8.102 37.003 32.951 58.881 19.447 17.016 25.39 27.01 25.39 42.675 0 14.045-5.943 18.907-15.396 18.907-9.453 0-15.396-4.862-15.396-18.367v-12.964h-28.09v10.804c0 30.25 14.586 47.537 43.756 47.537zm85.08-2.701h29.71V689.26h31.062v-27.01h-91.833v27.01h31.061zm75.087 0h81.029v-27.01h-51.319v-58.07h40.785v-27.01h-40.785V689.26h51.319v-27.01h-81.03zm98.045 0h29.71v-81.03h10.264c13.505 0 18.637 5.673 18.637 23.23v34.571c0 15.396 1.08 18.367 2.7 23.229h30.252c-2.971-7.023-3.242-13.775-3.242-22.959v-33.221c0-21.338-4.861-35.383-19.717-39.975v-.54c13.235-5.402 19.447-17.826 19.447-37.273v-11.614c0-29.17-13.234-43.486-44.025-43.486h-44.026zm29.71-108.039V689.26h13.505c10.534 0 15.126 5.942 15.126 19.447v14.585c0 15.126-6.753 19.987-17.827 19.987z" style="font-weight:700;font-size:270.096px;line-height:1.25;font-family:'Bebas Neue';-inkscape-font-specification:'Bebas Neue Bold';fill:#f9f9f7;fill-opacity:1;stroke-linecap:round;stroke-linejoin:round"/></g></svg>